HIERARCHY
ROOT Hips
{
	OFFSET -14.64140 90.27770 -84.91600
	CHANNELS 6 Xposition Yposition Zposition Zrotation Xrotation Yrotation
	JOINT Spine
	{
		OFFSET 0.00000 13.20850 -1.60436
		CHANNELS 3 Zrotation Xrotation Yrotation
		JOINT Spine1
		{
			OFFSET 0.00000 8.61716 0.00000
			CHANNELS 3 Zrotation Xrotation Yrotation
			JOINT Spine2
			{
				OFFSET 0.00000 8.61717 0.00000
				CHANNELS 3 Zrotation Xrotation Yrotation
				JOINT Spine3
				{
					OFFSET 0.00000 8.61717 0.00000
					CHANNELS 3 Zrotation Xrotation Yrotation
					JOINT Neck
					{
						OFFSET 0.00000 11.07920 1.10792
						CHANNELS 3 Zrotation Xrotation Yrotation
						JOINT Neck1
						{
							OFFSET 0.00000 7.08032 0.00000
							CHANNELS 3 Zrotation Xrotation Yrotation
							JOINT Head
							{
								OFFSET 0.00000 7.08031 0.00000
								CHANNELS 3 Zrotation Xrotation Yrotation
								End site
								{
									OFFSET 0.00000 0.00000 0.00000
								}
							}
						}
					}
					JOINT RightShoulder
					{
						OFFSET -0.01000 7.91373 5.19711
						CHANNELS 3 Zrotation Xrotation Yrotation
						JOINT RightArm
						{
							OFFSET -18.41580 0.00000 0.00000
							CHANNELS 3 Zrotation Xrotation Yrotation
							JOINT RightForeArm
							{
								OFFSET -29.11090 0.00000 0.00000
								CHANNELS 3 Zrotation Xrotation Yrotation
								JOINT RightHand
								{
									OFFSET -24.65040 0.00000 0.00000
									CHANNELS 3 Zrotation Xrotation Yrotation
									JOINT RightHandThumb1
									{
										OFFSET -5.35114 -0.85590 3.97906
										CHANNELS 3 Zrotation Xrotation Yrotation
										JOINT RightHandThumb2
										{
											OFFSET -4.52789 0.00000 0.00000
											CHANNELS 3 Zrotation Xrotation Yrotation
											JOINT RightHandThumb3
											{
												OFFSET -2.46976 0.00000 0.00000
												CHANNELS 3 Zrotation Xrotation Yrotation
												End site
												{
													OFFSET 0.00000 0.00000 0.00000
												}
											}
										}
									}
									JOINT RightHandIndex1
									{
										OFFSET -14.26970 0.00000 2.88139
										CHANNELS 3 Zrotation Xrotation Yrotation
										JOINT RightHandIndex2
										{
											OFFSET -5.48836 0.00000 0.00000
											CHANNELS 3 Zrotation Xrotation Yrotation
											JOINT RightHandIndex3
											{
												OFFSET -3.01859 0.00000 0.00000
												CHANNELS 3 Zrotation Xrotation Yrotation
												End site
												{
													OFFSET 0.00000 0.00000 0.00000
												}
											}
										}
									}
									JOINT RightHandMiddle1
									{
										OFFSET -14.26970 0.00000 -0.09147
										CHANNELS 3 Zrotation Xrotation Yrotation
										JOINT RightHandMiddle2
										{
											OFFSET -6.17441 0.00000 0.00000
											CHANNELS 3 Zrotation Xrotation Yrotation
											JOINT RightHandMiddle3
											{
												OFFSET -3.56743 0.00000 0.00000
												CHANNELS 3 Zrotation Xrotation Yrotation
												End site
												{
													OFFSET 0.00000 0.00000 0.00000
												}
											}
										}
									}
									JOINT RightHandRing1
									{
										OFFSET -12.69180 0.00000 -3.06433
										CHANNELS 3 Zrotation Xrotation Yrotation
										JOINT RightHandRing2
										{
											OFFSET -5.62556 0.00000 0.00000
											CHANNELS 3 Zrotation Xrotation Yrotation
											JOINT RightHandRing3
											{
												OFFSET -3.56744 0.00000 0.00000
												CHANNELS 3 Zrotation Xrotation Yrotation
												End site
												{
													OFFSET 0.00000 0.00000 0.00000
												}
											}
										}
									}
									JOINT RightHandPinky1
									{
										OFFSET -11.11390 0.00000 -6.03719
										CHANNELS 3 Zrotation Xrotation Yrotation
										JOINT RightHandPinky2
										{
											OFFSET -4.52789 0.00000 0.00000
											CHANNELS 3 Zrotation Xrotation Yrotation
											JOINT RightHandPinky3
											{
												OFFSET -2.46976 0.00000 0.00000
												CHANNELS 3 Zrotation Xrotation Yrotation
												End site
												{
													OFFSET 0.00000 0.00000 0.00000
												}
											}
										}
									}
								}
							}
						}
					}
					JOINT LeftShoulder
					{
						OFFSET 0.01000 7.91373 5.19711
						CHANNELS 3 Zrotation Xrotation Yrotation
						JOINT LeftArm
						{
							OFFSET 18.41580 0.00000 0.00000
							CHANNELS 3 Zrotation Xrotation Yrotation
							JOINT LeftForeArm
							{
								OFFSET 29.11090 0.00000 0.00000
								CHANNELS 3 Zrotation Xrotation Yrotation
								JOINT LeftHand
								{
									OFFSET 24.65040 0.00000 0.00000
									CHANNELS 3 Zrotation Xrotation Yrotation
									JOINT LeftHandThumb1
									{
										OFFSET 5.35114 -0.85590 3.97906
										CHANNELS 3 Zrotation Xrotation Yrotation
										JOINT LeftHandThumb2
										{
											OFFSET 4.52789 0.00000 0.00000
											CHANNELS 3 Zrotation Xrotation Yrotation
											JOINT LeftHandThumb3
											{
												OFFSET 2.46977 0.00000 0.00000
												CHANNELS 3 Zrotation Xrotation Yrotation
												End site
												{
													OFFSET 0.00000 0.00000 0.00000
												}
											}
										}
									}
									JOINT LeftHandIndex1
									{
										OFFSET 14.26970 0.00000 2.88139
										CHANNELS 3 Zrotation Xrotation Yrotation
										JOINT LeftHandIndex2
										{
											OFFSET 5.48836 0.00000 0.00000
											CHANNELS 3 Zrotation Xrotation Yrotation
											JOINT LeftHandIndex3
											{
												OFFSET 3.01859 0.00000 0.00000
												CHANNELS 3 Zrotation Xrotation Yrotation
												End site
												{
													OFFSET 0.00000 0.00000 0.00000
												}
											}
										}
									}
									JOINT LeftHandMiddle1
									{
										OFFSET 14.26970 0.00000 -0.09147
										CHANNELS 3 Zrotation Xrotation Yrotation
										JOINT LeftHandMiddle2
										{
											OFFSET 6.17440 0.00000 0.00000
											CHANNELS 3 Zrotation Xrotation Yrotation
											JOINT LeftHandMiddle3
											{
												OFFSET 3.56744 0.00000 0.00000
												CHANNELS 3 Zrotation Xrotation Yrotation
												End site
												{
													OFFSET 0.00000 0.00000 0.00000
												}
											}
										}
									}
									JOINT LeftHandRing1
									{
										OFFSET 12.69180 0.00000 -3.06433
										CHANNELS 3 Zrotation Xrotation Yrotation
										JOINT LeftHandRing2
										{
											OFFSET 5.62556 0.00000 0.00000
											CHANNELS 3 Zrotation Xrotation Yrotation
											JOINT LeftHandRing3
											{
												OFFSET 3.56744 0.00000 0.00000
												CHANNELS 3 Zrotation Xrotation Yrotation
												End site
												{
													OFFSET 0.00000 0.00000 0.00000
												}
											}
										}
									}
									JOINT LeftHandPinky1
									{
										OFFSET 11.11390 0.00000 -6.03719
										CHANNELS 3 Zrotation Xrotation Yrotation
										JOINT LeftHandPinky2
										{
											OFFSET 4.52789 0.00000 0.00000
											CHANNELS 3 Zrotation Xrotation Yrotation
											JOINT LeftHandPinky3
											{
												OFFSET 2.46976 0.00000 0.00000
												CHANNELS 3 Zrotation Xrotation Yrotation
												End site
												{
													OFFSET 0.00000 0.00000 0.00000
												}
											}
										}
									}
								}
							}
						}
					}
					JOINT pCube4
					{
						OFFSET 0.00000 10.91090 1.10792
						CHANNELS 3 Zrotation Xrotation Yrotation
						End site
						{
							OFFSET 0.00000 0.00000 0.00000
						}
					}
				}
			}
		}
	}
	JOINT RightUpLeg
	{
		OFFSET -9.98441 0.00000 0.00000
		CHANNELS 3 Zrotation Xrotation Yrotation
		JOINT RightLeg
		{
			OFFSET 0.00000 -42.11790 0.00000
			CHANNELS 3 Zrotation Xrotation Yrotation
			JOINT RightFoot
			{
				OFFSET 0.00000 -45.00020 -0.00001
				CHANNELS 3 Zrotation Xrotation Yrotation
				JOINT RightForeFoot
				{
					OFFSET 0.00000 -3.74820 0.00000
					CHANNELS 3 Zrotation Xrotation Yrotation
					JOINT RightToeBase
					{
						OFFSET 0.00000 0.06325 14.43120
						CHANNELS 3 Zrotation Xrotation Yrotation
						End site
						{
							OFFSET 0.00000 0.00000 0.00000
						}
					}
				}
			}
		}
	}
	JOINT LeftUpLeg
	{
		OFFSET 9.98441 0.00000 0.00000
		CHANNELS 3 Zrotation Xrotation Yrotation
		JOINT LeftLeg
		{
			OFFSET 0.00000 -42.11800 0.00000
			CHANNELS 3 Zrotation Xrotation Yrotation
			JOINT LeftFoot
			{
				OFFSET 0.00000 -45.00070 0.00000
				CHANNELS 3 Zrotation Xrotation Yrotation
				JOINT LeftForeFoot
				{
					OFFSET 0.00000 -3.74824 0.00000
					CHANNELS 3 Zrotation Xrotation Yrotation
					JOINT LeftToeBase
					{
						OFFSET 0.00000 0.06325 14.43110
						CHANNELS 3 Zrotation Xrotation Yrotation
						End site
						{
							OFFSET 0.00000 0.00000 0.00000
						}
					}
				}
			}
		}
	}
}
MOTION
Frames: 4
Frame Time: 0.050000
0.028440002750414885 0.007059699948594953 -0.0017744377804949762 -0.03530899152645924 0.024137364925147006 0.005207827548833692 -2.1997981334878216 0.24702453514147166 -0.860016572878652 -0.9536593214485906 3.6524688945715207 0.3499727125657116 -1.1107636520605353 -1.9098727089984082 -1.3481824733100825 0.11425397083395661 0.3650329454592515 -0.9090461925372176 -0.15920982518591467 12.766317573071682 0.7695570760292716 0.4558321974391917 0.5345115775906204 1.185072351898236 0.3348259623336387 -13.860069483611642 0.07601157326680569 -3.6598009132380245 1.4035555425065394 -15.689273358980438 73.41821554351037 15.902983323432991 -0.7253390196728732 -3.6966377434503386 7.37208645062043 42.46066674662468 22.686779703424904 -0.04448374896971645 -4.991920151877291 4.562043319008484 -0.10622057420648486 -1.614978633068511 0.0322179207763633 0.0010514592496903528 -56.2512522448808 -0.02295424966560913 0.02083601598789324 -56.22876604807901 -38.778239315337366 -0.030039412770756262 0.01847208352619614 -0.003206318634116277 0.030140090966259574 -0.02005748091162261 0.04009940844950563 -0.029855500680593214 0.03902273443755917 -36.712004875461794 -0.04965952476515849 0.03966125274256607 0.0358489322389352 0.0019329473902631661 0.03231194382816486 -0.018515543640309474 -0.018237891985498394 0.037201145962814215 -19.73924956203827 0.034668424230774854 -0.034423826410019995 0.025067435382048614 -0.014599231973689378 0.03589754956298772 0.007511057344284813 -0.045499137543556195 -0.007182580540299104 24.085637695605556 -0.03159673807865653 0.020342503194042565 28.833574886387197 -0.04594697056009966 0.01927858967556737 28.844021656864854 -0.007137166853377021 0.023763213935110838 5.503461732708202 1.3290027660094001 13.813226692827065 -71.18278703758635 29.5014855841456 -6.990762862762956 -7.000410431007145 -7.754682437050316 -89.18123785937857 -9.860993318857204 -5.864036949442657 3.815707516760241 -0.4843372872040184 0.08129814381785248 -8.106522535321043 0.03497699233573581 -0.005206477074367966 44.557000380680385 0.029191554341304802 0.0071239901116919545 44.57587285990249 12.433365406314032 0.04173712540731314 0.03402943586006159 0.007610925656640622 0.04024263941787038 -0.02379925950509028 0.02308052130068935 -0.004219242230262343 -0.0289937004007406 11.095776201388718 0.0281412378849324 0.009496344372320033 0.018325226815289905 -0.009238037965446191 0.023807753482737705 -0.0052301091960435045 0.03581211257333281 0.0076333863929475415 4.7666468775976725 -0.04229469134106487 0.01894740914959515 0.04488835375327027 0.013233851860929813 0.02334896856801663 0.0055694665637809155 0.008416037488460792 -0.04976804378852907 -5.64758766405096 -0.02970012954449066 0.034304680430926354 -6.684379171943261 0.013802598543495028 0.040365636166930105 -6.757869536524765 0.021473855966701216 0.0088335797482763 0.03579534141280647 0.00489487296454814 0.03003991560355665 8.039931454534255 3.451551349227064 -19.22987121180601 0.04703843137345763 10.422172399754286 0.054582960681074294 -5.616055640449476 -15.642003758248528 3.1612031985577413 -0.010002668996737393 0.006762961423630107 0.030940322225032263 0.011243449046441497 4.730537881391623 -0.028905773755969456 12.44106429334985 -8.258817008497251 6.868452195048346 0.015309152093890355 46.360567805827486 -0.006696646793034741 -4.277247321091838 -14.723554219439697 -3.88435882872455 -0.045658170363017836 -0.012319061941096542 0.018521953652650313 -0.03505314114590836 -10.713860558396373 0.028528038392090945 
-0.004964946748741586 0.0024745877069036874 -0.022263125322972314 -0.012516681786209453 0.02658792844186051 -0.014120780356567135 -2.338495240255366 0.16732692676919417 -0.8552570046065399 -0.9551531961952563 3.7284561758011834 0.3798182611948682 -1.1847350002444845 -1.9614928144771375 -1.3896456828167956 -0.009464787213539771 0.4172310264605542 -0.9049503623396755 -0.17836978454056035 12.992340764396264 1.041961108230101 0.5487387130628743 0.6819724272769556 1.8839016849192116 0.2864869661810558 -13.69710990437939 0.109946880967319 -3.777095853340455 1.4520257650158477 -15.746013860911557 73.27825175957771 15.240308820640797 -0.8496702900153504 -3.2611746045368633 7.509064153449462 42.4038032730284 22.85348802993657 0.008646352178996182 -4.91530141007992 4.515663729316677 -0.14954138985420665 -1.58570200069482 -0.043381085377148104 0.02803064007482908 -56.20652924986988 -0.04521666918789622 0.007690851345069937 -56.22109689572726 -38.80605007326479 -0.011806193583274411 0.041926690170788046 -0.015394948704331208 0.006938201049100082 0.04305814258663005 0.04870068867291326 0.012705568580111742 0.02191369849592643 -36.677466408913396 0.02163976316429443 0.039619704260350296 -0.003466054237288402 -0.009133316094155694 0.020739929279501235 -0.03755459126295802 0.018506802350819238 0.015004639678385792 -19.75094301128989 0.03858965196436481 0.0005124568214874958 -0.04396176733031844 -0.0020115060282815253 -0.015925342921173917 0.03855544940604211 -0.04262433045319563 0.006378427935565055 24.06481788379561 0.012342313148184021 0.020709256326273906 28.831904852628497 0.04387406858330281 0.0036260945247669637 28.834651264183645 0.03481579478822359 0.009071478732008911 5.668426019892876 1.3752727172212977 13.849135957329347 -71.00155318884904 29.839989867462435 -7.2559800963957155 -7.15508883980163 -7.920537538124054 -89.5769499321768 -8.846977609978408 -5.104472689183699 2.854042807626317 -0.47698260917488117 0.08324847387500467 -8.123448091829962 -0.022460027807584815 -0.019898375721267538 44.595948489866714 -0.010796543344866735 0.03968944659222761 44.583090577921666 12.509633293638851 0.005664779637863055 -0.015510255606522723 0.04024457770285514 0.0132408646532981 -0.01257778271684108 0.027011618645835952 -0.008919513905387718 0.029053769954194945 11.115206484673113 -0.008620525336822359 0.023096035869929973 0.006475744084467587 -0.008175557387064016 0.04295939826448801 0.022908552305793094 0.02976689307052346 -0.014538608917660262 4.813872927511212 -0.01590049193112366 0.01927903778098104 -0.005759322086143509 0.010589256411068768 -0.04340381757882059 0.023712712432692584 -0.012909032473757262 -0.008771242156670064 -5.649542126383284 -0.0033016305154009965 -0.03984478516849246 -6.735662631951565 -0.004218435514339728 0.0017868510283996191 -6.734660126388691 -0.013423014879881996 -0.0055874721643612716 -0.015221840741321697 -0.020953813352155178 0.011504761878833978 8.039128294844843 3.5153275199094067 -19.25387332439817 0.016793921334893495 10.420307618835812 0.0023135583497402284 -5.6573607543867475 -15.687754081306311 3.182529177208438 -0.004561660249828054 0.03757644502871997 0.026808173287260557 -0.00813857613668778 4.70407702824968 -0.042913422291210625 12.431989666228567 -8.199967264310256 6.840598235012517 0.007028537329165048 46.41209914439542 0.021447215458900125 -4.366453802130773 -14.741874945378498 -3.7942354780738143 -0.04644752592400024 0.023868423189001436 -0.016765027281856675 -0.008095914848809557 -10.720041152744587 0.028572276633455643 
0.01914610448835259 -0.03627770433479399 0.005347783621012989 0.010497634788210294 -0.006677701429938912 0.00850004408051389 -2.450064458779353 0.14626364863783434 -0.7953634019300088 -1.0500424099794659 3.709062390819446 0.3884598221404104 -1.150395691767944 -1.9654925372252945 -1.4641420835269066 -0.005162746717653377 0.44649073921776705 -0.8497459274481044 -0.23449661229293495 13.217270310681222 1.3779646467706466 0.5489656605256793 0.7359144375935411 2.742992625011915 0.22582986026213075 -13.615739749011695 0.24665385574269122 -3.8997519776035627 1.4012090071435166 -15.772930126545551 73.2149176341054 15.233759302134375 -1.1031521063338436 -2.4130664518211606 7.571571892983874 42.918626561896325 22.80173814342429 -0.0879224055395941 -4.65470661386899 4.495732896819769 -0.11278048304752095 -1.6271883922028056 0.02377013391619879 -0.04905845112616449 -56.234457916705736 -0.015721624865142194 -0.024805386008605313 -56.232763032605426 -38.72998899034622 -0.032275976642701244 0.028929098881064038 0.013322673941166582 -0.016302234878729966 0.048192598771434565 0.01666871434815294 -0.0004658709053746563 0.03307254422083776 -36.71598437274321 -0.03713941321525798 -0.012379392656528427 0.011309442923369228 0.039003506832792086 0.023078349487841418 0.009972369841731717 0.008836367730687642 0.01302440210881196 -19.73261286430679 -0.04276298463133987 -0.028610907243864957 0.026162812420746938 0.007924355077889104 0.018556741323295066 -0.02813704399102904 0.014905573244764724 -0.042562817769069825 24.060515690912446 -0.007678139927271373 -0.015152605520098011 28.884143854112942 -0.005679348006286941 -0.011013075649651979 28.862855369004997 0.027338323336606293 -0.0025322546958521535 5.850272437588075 1.4270296697776501 13.898556910366164 -70.80733256386148 30.400873925079008 -7.4631017574043845 -5.9470145000034735 -8.714355356205617 -90.451777507607 -7.722408296456596 -4.3780699615385315 1.6163325021639972 -0.4650283565273645 0.06725488806935878 -8.090428579728956 0.032782000668053625 -0.01622050291435248 44.539835931475906 0.026371425782593313 0.011352082065942386 44.608996209867506 12.452170485487377 -0.030809484696257265 -0.004959978249822869 0.04976145708865709 -0.023009108396949036 0.017453881801391544 -0.017279969042135107 0.010709737540731264 0.04899910402914141 11.07485153468143 0.03016161438930262 0.02108412862815774 -0.03598410722411684 0.027338163705407877 0.038624457667485734 -0.004729815553682316 -0.00025194005449478724 0.04806480677165226 4.771617084091961 -0.04822757927307012 -0.030663189153574757 -0.04311820245127017 -0.039686216045317815 0.01941602214085532 -0.012417808517590863 -0.001605969641289246 -0.010966430572889506 -5.576500062148142 0.035060662702322096 -0.04847690513888866 -6.679757829239859 0.014830282325333708 -0.04127796732048337 -6.743578250400264 -0.04146688338356789 -0.027987672773511073 0.012446257837616664 0.007419394807283668 -0.026986057973679495 8.020241232326052 3.5327027283763366 -19.265673728332025 0.036659186083487866 10.370336680119516 0.04732209079920813 -5.652789212758622 -15.669457901109546 3.220655250969509 -0.0015194437251073866 0.016889574143344202 -0.04500899117951277 -0.01166722885420719 4.728919686149542 0.015191056535902041 12.418653525217884 -8.228455545419099 6.865274778740734 -0.006852448243085342 46.3861779481071 -0.035648959777668084 -4.345799596279959 -14.762526589775028 -3.814502326236155 -0.012297548496052463 0.01633511011894519 -0.014537659670278966 -0.048230171561514434 -10.707756626061318 0.044497481168545856 
-0.032681270276306115 -0.04966410251736406 0.03932483479612602 0.04112787685304158 0.0019748933059382657 0.004274807869020263 -2.557866079498641 0.09452936690631901 -0.8121961240497131 -0.9986738844867141 3.7223044271213293 0.3407593181543767 -1.1877033852015944 -2.0669514878794453 -1.4483415284348344 -0.1125625719013173 0.38247158718277513 -0.9031467496601765 -0.3034396800727137 13.408652177953156 1.7543015136745705 0.5823092594884601 0.8042590926704073 3.4570390293085747 0.23807564605671847 -13.500807175826708 0.2740093082396409 -3.9434011738768255 1.47971222777713 -15.77681331826457 73.16672598085529 15.045259745389247 -1.3275230191127247 -1.6483055838434477 7.596363280779074 43.297228448532216 22.763563972596227 -0.062290623394321176 -4.405728562432356 4.518443187082207 -0.1209307589795304 -1.573893292521906 0.03623711166016872 0.006734222894729583 -56.21684913984714 0.026905829063221705 0.04179813765808796 -56.24928336647942 -38.73870765542294 0.00855193195612105 0.041899639096834536 -0.01652448898406577 -0.024795597097616476 0.007760269931453129 0.01566293762586404 0.008997858687938669 0.032029076275477714 -36.72070066184815 -0.02916496170018882 0.046233246843660245 -0.028319683885707696 -0.03225732169858609 -0.023416516337223206 0.009587741112106465 -0.0395016177177994 0.02466134265929268 -19.804036351966626 -0.04439018082656548 -0.018366995190722123 0.015638817966689252 -0.042916019139937985 -0.015078651025067499 0.025875446279205995 0.0042171471911878365 -0.032949386690118126 24.01109037927063 -0.04627011902867095 0.020684729944577148 28.886128467926437 0.010967979997800692 0.02594028842217067 28.870417018869432 -0.008621307884696465 -0.020948932309020587 6.019536067243524 1.4232078586719241 13.983237979299016 -70.50199134834743 30.981168485852294 -7.816719340602568 -3.3645777641950914 -9.977250707729784 -91.669606597114 -6.369767748181545 -3.699970795781305 0.3738533256230926 -0.459832172646704 0.1019415848949653 -8.134770881524654 0.011366402851933785 -0.0396001530702841 44.5983869635798 0.03258200087013817 0.0021460389446943816 44.58101284044008 12.483942560573707 0.03491732862830977 0.0032245251374214755 -0.01817150804979561 -0.0005827842551887915 0.012451073795893627 0.0402499609008843 -0.005453573208600861 -0.0477930716651166 11.131843021220849 0.018440231571777512 -0.03581644780209065 0.01823792957768361 -0.03288607260404584 -0.021341180681223385 -0.014792813419500297 0.0006169712700561391 -0.04803019230076086 4.753401886738429 -0.0041237590817097425 0.00029678999027232214 0.04839777233530861 0.0034559255701346477 -0.04200836073577382 -0.0291149226931912 0.03594532247399895 0.00887387738713164 -5.574657098756668 -0.0287608390483273 -0.04245872702331746 -6.688226901626597 0.02695364247017949 0.041486366871423166 -6.713251125812809 -0.02345192247151177 0.009587449299447734 0.026487558081331998 -0.014229112606200295 0.021653224707175223 8.078539003831118 3.4460902599290564 -19.215309978324903 -0.013504555381979505 10.36090503461632 0.052927176077275775 -5.653469751519511 -15.683167419194112 3.222506248820827 -0.025264051446126704 0.010781454567888253 -0.012420169557130342 0.005945514283206408 4.650195997397532 -0.014832640560116489 12.415665609076866 -8.27857342556916 6.875622092290122 -0.001322679627819004 46.39631053136474 -0.03422025138963313 -4.326421007901735 -14.709633832675403 -3.8542565966411977 0.026599296639755157 -0.017523454328538794 0.013945921822669077 -0.039181915834733246 -10.74456185571301 0.005639850477328857 
